<svg xmlns="http://www.w3.org/2000/svg" width="900" height="620" viewBox="0 0 900 620">
  <defs>
    <linearGradient id="bg" x1="0" x2="1" y1="0" y2="1">
      <stop offset="0" stop-color="#fff0e8"/>
      <stop offset="1" stop-color="#ffd6df"/>
    </linearGradient>
    <filter id="shadow" x="-20%" y="-20%" width="140%" height="140%">
      <feDropShadow dx="0" dy="18" stdDeviation="16" flood-color="#8a5a44" flood-opacity=".20"/>
    </filter>
  </defs>
  <rect width="900" height="620" rx="48" fill="url(#bg)"/>
  <circle cx="105" cy="95" r="44" fill="#fff" opacity=".42"/>
  <circle cx="790" cy="100" r="62" fill="#fff" opacity=".34"/>
  <circle cx="810" cy="520" r="85" fill="#fff" opacity=".32"/>
  <g filter="url(#shadow)">
    
    <ellipse cx="450" cy="430" rx="250" ry="46" fill="#d9b59d" opacity=".55"/>
    <rect x="265" y="255" width="370" height="170" rx="28" fill="#5a2f25"/>
    <rect x="265" y="210" width="370" height="95" rx="38" fill="#7a4233"/>
    <path d="M270 235 C315 280 330 200 375 235 C420 280 435 200 480 235 C525 280 540 200 585 235 C610 260 630 248 635 235 L635 305 L270 305 Z" fill="#3d1f19" opacity=".95"/>
    <rect x="290" y="330" width="320" height="26" rx="13" fill="#f7c7b5" opacity=".72"/>
    <circle cx="360" cy="195" r="26" fill="#2e1713"/>
    <circle cx="450" cy="188" r="31" fill="#2e1713"/>
    <circle cx="540" cy="195" r="26" fill="#2e1713"/>

  </g>
  <text x="450" y="560" text-anchor="middle" font-family="Tahoma, Arial" font-size="34" font-weight="700" fill="#6d4337">کیک تولد شکلاتی</text>
</svg>