<svg xmlns="http://www.w3.org/2000/svg" width="900" height="620" viewBox="0 0 900 620">
  <defs>
    <linearGradient id="bg" x1="0" x2="1" y1="0" y2="1">
      <stop offset="0" stop-color="#fff6f1"/>
      <stop offset="1" stop-color="#ffdeea"/>
    </linearGradient>
    <filter id="shadow" x="-20%" y="-20%" width="140%" height="140%">
      <feDropShadow dx="0" dy="18" stdDeviation="16" flood-color="#8a5a44" flood-opacity=".20"/>
    </filter>
  </defs>
  <rect width="900" height="620" rx="48" fill="url(#bg)"/>
  <circle cx="105" cy="95" r="44" fill="#fff" opacity=".42"/>
  <circle cx="790" cy="100" r="62" fill="#fff" opacity=".34"/>
  <circle cx="810" cy="520" r="85" fill="#fff" opacity=".32"/>
  <g filter="url(#shadow)">
    
    <ellipse cx="450" cy="430" rx="255" ry="46" fill="#d9b59d" opacity=".55"/>
    <rect x="260" y="250" width="380" height="170" rx="30" fill="#fff"/>
    <rect x="260" y="210" width="380" height="92" rx="40" fill="#ffd7e1"/>
    <path d="M320 225 C350 185 405 185 430 225 C455 175 525 175 550 225 C585 190 625 205 640 230 L640 302 H260 L260 230 C275 205 300 205 320 225Z" fill="#ffb0c3"/>
    <text x="450" y="360" text-anchor="middle" font-family="Tahoma, Arial" font-size="54" font-weight="900" fill="#c94b68">♥</text>
    <circle cx="450" cy="182" r="24" fill="#e65368"/>
    <path d="M444 154 C468 138 485 158 478 180 C465 169 455 170 444 154Z" fill="#5a9a55"/>

  </g>
  <text x="450" y="560" text-anchor="middle" font-family="Tahoma, Arial" font-size="34" font-weight="700" fill="#6d4337">کیک سفارشی</text>
</svg>