<svg xmlns="http://www.w3.org/2000/svg" width="900" height="620" viewBox="0 0 900 620">
  <defs>
    <linearGradient id="bg" x1="0" x2="1" y1="0" y2="1">
      <stop offset="0" stop-color="#fff4f5"/>
      <stop offset="1" stop-color="#ffe9cc"/>
    </linearGradient>
    <filter id="shadow" x="-20%" y="-20%" width="140%" height="140%">
      <feDropShadow dx="0" dy="18" stdDeviation="16" flood-color="#8a5a44" flood-opacity=".20"/>
    </filter>
  </defs>
  <rect width="900" height="620" rx="48" fill="url(#bg)"/>
  <circle cx="105" cy="95" r="44" fill="#fff" opacity=".42"/>
  <circle cx="790" cy="100" r="62" fill="#fff" opacity=".34"/>
  <circle cx="810" cy="520" r="85" fill="#fff" opacity=".32"/>
  <g filter="url(#shadow)">
    
    <ellipse cx="450" cy="435" rx="270" ry="46" fill="#d9b59d" opacity=".55"/>
    <g transform="translate(200 210)">
      <ellipse cx="95" cy="95" rx="82" ry="52" fill="#f59aae"/>
      <rect x="25" y="90" width="140" height="34" rx="17" fill="#fff4e8"/>
      <ellipse cx="95" cy="128" rx="82" ry="52" fill="#f59aae"/>
      <ellipse cx="250" cy="95" rx="82" ry="52" fill="#edc15e"/>
      <rect x="180" y="90" width="140" height="34" rx="17" fill="#fff4e8"/>
      <ellipse cx="250" cy="128" rx="82" ry="52" fill="#edc15e"/>
      <ellipse cx="405" cy="95" rx="82" ry="52" fill="#9bcf8d"/>
      <rect x="335" y="90" width="140" height="34" rx="17" fill="#fff4e8"/>
      <ellipse cx="405" cy="128" rx="82" ry="52" fill="#9bcf8d"/>
    </g>

  </g>
  <text x="450" y="560" text-anchor="middle" font-family="Tahoma, Arial" font-size="34" font-weight="700" fill="#6d4337">ماکارون رنگی</text>
</svg>