<svg xmlns="http://www.w3.org/2000/svg" width="900" height="620" viewBox="0 0 900 620">
  <defs>
    <linearGradient id="bg" x1="0" x2="1" y1="0" y2="1">
      <stop offset="0" stop-color="#fff5f0"/>
      <stop offset="1" stop-color="#ffdce5"/>
    </linearGradient>
    <filter id="shadow" x="-20%" y="-20%" width="140%" height="140%">
      <feDropShadow dx="0" dy="18" stdDeviation="16" flood-color="#8a5a44" flood-opacity=".20"/>
    </filter>
  </defs>
  <rect width="900" height="620" rx="48" fill="url(#bg)"/>
  <circle cx="105" cy="95" r="44" fill="#fff" opacity=".42"/>
  <circle cx="790" cy="100" r="62" fill="#fff" opacity=".34"/>
  <circle cx="810" cy="520" r="85" fill="#fff" opacity=".32"/>
  <g filter="url(#shadow)">
    
    <ellipse cx="450" cy="430" rx="250" ry="46" fill="#d9b59d" opacity=".55"/>
    <rect x="250" y="250" width="400" height="170" rx="28" fill="#a73843"/>
    <rect x="250" y="210" width="400" height="90" rx="40" fill="#f5f0e9"/>
    <rect x="250" y="318" width="400" height="28" rx="14" fill="#f5f0e9"/>
    <path d="M280 236 C330 205 365 260 410 225 C460 188 510 264 560 225 C600 198 625 240 650 218 L650 300 L250 300 L250 235 Z" fill="#fff" opacity=".96"/>
    <circle cx="450" cy="190" r="38" fill="#d84d5c"/>
    <path d="M444 160 C470 140 488 162 480 185 C465 174 455 174 444 160Z" fill="#5a9a55"/>

  </g>
  <text x="450" y="560" text-anchor="middle" font-family="Tahoma, Arial" font-size="34" font-weight="700" fill="#6d4337">کیک ردولوت</text>
</svg>