<svg xmlns="http://www.w3.org/2000/svg" width="900" height="620" viewBox="0 0 900 620">
  <defs>
    <linearGradient id="bg" x1="0" x2="1" y1="0" y2="1">
      <stop offset="0" stop-color="#fff8e8"/>
      <stop offset="1" stop-color="#ffe7d0"/>
    </linearGradient>
    <filter id="shadow" x="-20%" y="-20%" width="140%" height="140%">
      <feDropShadow dx="0" dy="18" stdDeviation="16" flood-color="#8a5a44" flood-opacity=".20"/>
    </filter>
  </defs>
  <rect width="900" height="620" rx="48" fill="url(#bg)"/>
  <circle cx="105" cy="95" r="44" fill="#fff" opacity=".42"/>
  <circle cx="790" cy="100" r="62" fill="#fff" opacity=".34"/>
  <circle cx="810" cy="520" r="85" fill="#fff" opacity=".32"/>
  <g filter="url(#shadow)">
    
    <ellipse cx="450" cy="430" rx="260" ry="50" fill="#d9b59d" opacity=".55"/>
    <g transform="translate(230 210)">
      <rect width="440" height="220" rx="28" fill="#d99545"/>
      <path d="M0 55 H440 M0 110 H440 M0 165 H440" stroke="#fff1d1" stroke-width="10" opacity=".9"/>
      <path d="M65 0 L0 55 M150 0 L0 150 M240 0 L20 220 M330 0 L110 220 M420 0 L200 220 M440 70 L290 220 M440 160 L380 220" stroke="#fff1d1" stroke-width="9" opacity=".9"/>
      <circle cx="100" cy="75" r="12" fill="#7e4c23"/>
      <circle cx="230" cy="140" r="12" fill="#7e4c23"/>
      <circle cx="350" cy="82" r="12" fill="#7e4c23"/>
    </g>

  </g>
  <text x="450" y="560" text-anchor="middle" font-family="Tahoma, Arial" font-size="34" font-weight="700" fill="#6d4337">باقلوا</text>
</svg>