<svg xmlns="http://www.w3.org/2000/svg" width="900" height="620" viewBox="0 0 900 620">
  <defs>
    <linearGradient id="bg" x1="0" x2="1" y1="0" y2="1">
      <stop offset="0" stop-color="#fff9ed"/>
      <stop offset="1" stop-color="#ffe3eb"/>
    </linearGradient>
    <filter id="shadow" x="-20%" y="-20%" width="140%" height="140%">
      <feDropShadow dx="0" dy="18" stdDeviation="16" flood-color="#8a5a44" flood-opacity=".20"/>
    </filter>
  </defs>
  <rect width="900" height="620" rx="48" fill="url(#bg)"/>
  <circle cx="105" cy="95" r="44" fill="#fff" opacity=".42"/>
  <circle cx="790" cy="100" r="62" fill="#fff" opacity=".34"/>
  <circle cx="810" cy="520" r="85" fill="#fff" opacity=".32"/>
  <g filter="url(#shadow)">
    
    <ellipse cx="450" cy="430" rx="260" ry="46" fill="#d9b59d" opacity=".55"/>
    <rect x="260" y="255" width="380" height="165" rx="30" fill="#fff"/>
    <rect x="260" y="212" width="380" height="90" rx="40" fill="#fff7ee"/>
    <path d="M285 252 C345 205 410 275 470 225 C535 170 585 255 640 220 L640 302 L260 302 L260 248 Z" fill="#ffd5df"/>
    <circle cx="335" cy="205" r="24" fill="#e44d62"/>
    <circle cx="405" cy="190" r="22" fill="#f0a23c"/>
    <circle cx="485" cy="198" r="24" fill="#dd4760"/>
    <circle cx="560" cy="190" r="22" fill="#7caf5c"/>
    <rect x="310" y="338" width="280" height="22" rx="11" fill="#ffd4df"/>

  </g>
  <text x="450" y="560" text-anchor="middle" font-family="Tahoma, Arial" font-size="34" font-weight="700" fill="#6d4337">کیک خامه‌ای میوه‌ای</text>
</svg>